<mxfile host="app.diagrams.net" modified="2021-11-02T00:24:32.772Z" agent="5.0 (Windows NT 10.0; Win64; x64) AppleWebKit/537.36 (KHTML, like Gecko) Chrome/95.0.4638.54 Safari/537.36" etag="nTiiR2Ctuv5kdNI-v9wn" version="15.6.5" type="github">
  <diagram id="Y7yu4akXsgKIrNAuKALa" name="Page-1">
    <mxGraphModel dx="657" dy="1131" grid="1" gridSize="10" guides="1" tooltips="1" connect="1" arrows="1" fold="1" page="1" pageScale="1" pageWidth="827" pageHeight="1169" math="0" shadow="0">
      <root>
        <mxCell id="0" />
        <mxCell id="1" parent="0" />
        <mxCell id="CefQyaZeRaunVeOtPe7L-30" style="edgeStyle=orthogonalEdgeStyle;rounded=0;orthogonalLoop=1;jettySize=auto;html=1;exitX=1;exitY=0.5;exitDx=0;exitDy=0;entryX=0;entryY=0.5;entryDx=0;entryDy=0;labelBackgroundColor=default;fontColor=default;strokeColor=default;" edge="1" parent="1" source="CefQyaZeRaunVeOtPe7L-1" target="CefQyaZeRaunVeOtPe7L-4">
          <mxGeometry relative="1" as="geometry" />
        </mxCell>
        <mxCell id="CefQyaZeRaunVeOtPe7L-38" value="" style="edgeStyle=orthogonalEdgeStyle;rounded=0;orthogonalLoop=1;jettySize=auto;html=1;labelBackgroundColor=default;fontColor=default;strokeColor=default;" edge="1" parent="1" source="CefQyaZeRaunVeOtPe7L-1" target="CefQyaZeRaunVeOtPe7L-37">
          <mxGeometry relative="1" as="geometry" />
        </mxCell>
        <mxCell id="CefQyaZeRaunVeOtPe7L-1" value="Arduino Mega" style="rounded=0;whiteSpace=wrap;html=1;fillColor=default;strokeColor=default;fontColor=default;fontStyle=1" vertex="1" parent="1">
          <mxGeometry x="430" y="360" width="120" height="60" as="geometry" />
        </mxCell>
        <mxCell id="CefQyaZeRaunVeOtPe7L-6" style="edgeStyle=orthogonalEdgeStyle;rounded=0;orthogonalLoop=1;jettySize=auto;html=1;exitX=1;exitY=0.5;exitDx=0;exitDy=0;fontColor=default;entryX=0;entryY=0.5;entryDx=0;entryDy=0;strokeColor=default;labelBackgroundColor=default;" edge="1" parent="1" source="CefQyaZeRaunVeOtPe7L-4" target="CefQyaZeRaunVeOtPe7L-7">
          <mxGeometry relative="1" as="geometry">
            <mxPoint x="770" y="390" as="targetPoint" />
          </mxGeometry>
        </mxCell>
        <mxCell id="CefQyaZeRaunVeOtPe7L-23" style="edgeStyle=orthogonalEdgeStyle;rounded=0;orthogonalLoop=1;jettySize=auto;html=1;exitX=1;exitY=0.5;exitDx=0;exitDy=0;entryX=0;entryY=0.5;entryDx=0;entryDy=0;labelBackgroundColor=default;fontColor=default;strokeColor=default;" edge="1" parent="1" source="CefQyaZeRaunVeOtPe7L-4" target="CefQyaZeRaunVeOtPe7L-21">
          <mxGeometry relative="1" as="geometry" />
        </mxCell>
        <mxCell id="CefQyaZeRaunVeOtPe7L-24" style="edgeStyle=orthogonalEdgeStyle;rounded=0;orthogonalLoop=1;jettySize=auto;html=1;exitX=1;exitY=0.5;exitDx=0;exitDy=0;entryX=0;entryY=0.5;entryDx=0;entryDy=0;labelBackgroundColor=default;fontColor=default;strokeColor=default;" edge="1" parent="1" source="CefQyaZeRaunVeOtPe7L-4" target="CefQyaZeRaunVeOtPe7L-22">
          <mxGeometry relative="1" as="geometry" />
        </mxCell>
        <mxCell id="CefQyaZeRaunVeOtPe7L-25" style="edgeStyle=orthogonalEdgeStyle;rounded=0;orthogonalLoop=1;jettySize=auto;html=1;exitX=1;exitY=0.5;exitDx=0;exitDy=0;entryX=0;entryY=0.5;entryDx=0;entryDy=0;labelBackgroundColor=default;fontColor=default;strokeColor=default;" edge="1" parent="1" source="CefQyaZeRaunVeOtPe7L-4" target="CefQyaZeRaunVeOtPe7L-20">
          <mxGeometry relative="1" as="geometry" />
        </mxCell>
        <mxCell id="CefQyaZeRaunVeOtPe7L-26" style="edgeStyle=orthogonalEdgeStyle;rounded=0;orthogonalLoop=1;jettySize=auto;html=1;exitX=1;exitY=0.5;exitDx=0;exitDy=0;entryX=0;entryY=0.5;entryDx=0;entryDy=0;labelBackgroundColor=default;fontColor=default;strokeColor=default;" edge="1" parent="1" source="CefQyaZeRaunVeOtPe7L-4" target="CefQyaZeRaunVeOtPe7L-18">
          <mxGeometry relative="1" as="geometry" />
        </mxCell>
        <mxCell id="CefQyaZeRaunVeOtPe7L-34" style="edgeStyle=orthogonalEdgeStyle;rounded=0;orthogonalLoop=1;jettySize=auto;html=1;exitX=0.5;exitY=1;exitDx=0;exitDy=0;entryX=0.5;entryY=0;entryDx=0;entryDy=0;labelBackgroundColor=default;fontColor=default;strokeColor=default;" edge="1" parent="1" source="CefQyaZeRaunVeOtPe7L-4" target="CefQyaZeRaunVeOtPe7L-17">
          <mxGeometry relative="1" as="geometry" />
        </mxCell>
        <mxCell id="CefQyaZeRaunVeOtPe7L-4" value="Tela LCD Touch" style="rounded=0;whiteSpace=wrap;html=1;fillColor=#FFCCCC;strokeColor=default;fontColor=default;fontStyle=1" vertex="1" parent="1">
          <mxGeometry x="620" y="360" width="120" height="60" as="geometry" />
        </mxCell>
        <mxCell id="CefQyaZeRaunVeOtPe7L-13" style="edgeStyle=orthogonalEdgeStyle;rounded=0;orthogonalLoop=1;jettySize=auto;html=1;exitX=1;exitY=0.5;exitDx=0;exitDy=0;entryX=0;entryY=0.75;entryDx=0;entryDy=0;labelBackgroundColor=default;fontColor=default;strokeColor=default;" edge="1" parent="1" source="CefQyaZeRaunVeOtPe7L-7" target="CefQyaZeRaunVeOtPe7L-10">
          <mxGeometry relative="1" as="geometry">
            <Array as="points">
              <mxPoint x="940" y="390" />
              <mxPoint x="940" y="225" />
            </Array>
          </mxGeometry>
        </mxCell>
        <mxCell id="CefQyaZeRaunVeOtPe7L-14" style="edgeStyle=orthogonalEdgeStyle;rounded=0;orthogonalLoop=1;jettySize=auto;html=1;exitX=1;exitY=0.5;exitDx=0;exitDy=0;entryX=0;entryY=0.75;entryDx=0;entryDy=0;labelBackgroundColor=default;fontColor=default;strokeColor=default;" edge="1" parent="1" source="CefQyaZeRaunVeOtPe7L-7" target="CefQyaZeRaunVeOtPe7L-9">
          <mxGeometry relative="1" as="geometry">
            <Array as="points">
              <mxPoint x="940" y="390" />
              <mxPoint x="940" y="325" />
            </Array>
          </mxGeometry>
        </mxCell>
        <mxCell id="CefQyaZeRaunVeOtPe7L-15" style="edgeStyle=orthogonalEdgeStyle;rounded=0;orthogonalLoop=1;jettySize=auto;html=1;exitX=1;exitY=0.5;exitDx=0;exitDy=0;entryX=0;entryY=0.25;entryDx=0;entryDy=0;labelBackgroundColor=default;fontColor=default;strokeColor=default;" edge="1" parent="1" source="CefQyaZeRaunVeOtPe7L-7" target="CefQyaZeRaunVeOtPe7L-11">
          <mxGeometry relative="1" as="geometry">
            <Array as="points">
              <mxPoint x="940" y="390" />
              <mxPoint x="940" y="445" />
            </Array>
          </mxGeometry>
        </mxCell>
        <mxCell id="CefQyaZeRaunVeOtPe7L-16" style="edgeStyle=orthogonalEdgeStyle;rounded=0;orthogonalLoop=1;jettySize=auto;html=1;exitX=1;exitY=0.5;exitDx=0;exitDy=0;entryX=0;entryY=0.25;entryDx=0;entryDy=0;labelBackgroundColor=default;fontColor=default;strokeColor=default;" edge="1" parent="1" source="CefQyaZeRaunVeOtPe7L-7" target="CefQyaZeRaunVeOtPe7L-12">
          <mxGeometry relative="1" as="geometry">
            <Array as="points">
              <mxPoint x="940" y="390" />
              <mxPoint x="940" y="545" />
            </Array>
          </mxGeometry>
        </mxCell>
        <mxCell id="CefQyaZeRaunVeOtPe7L-7" value="Módulo Relé&lt;br&gt;4 canais" style="rounded=0;whiteSpace=wrap;html=1;fillColor=#CCE5FF;strokeColor=default;fontColor=default;fontStyle=1" vertex="1" parent="1">
          <mxGeometry x="790" y="360" width="120" height="60" as="geometry" />
        </mxCell>
        <mxCell id="CefQyaZeRaunVeOtPe7L-9" value="Módulo MFC 1" style="rounded=0;whiteSpace=wrap;html=1;fillColor=#FFFFCC;strokeColor=default;fontColor=default;fontStyle=1" vertex="1" parent="1">
          <mxGeometry x="1000" y="280" width="120" height="60" as="geometry" />
        </mxCell>
        <mxCell id="CefQyaZeRaunVeOtPe7L-10" value="Módulo MFC 1" style="rounded=0;whiteSpace=wrap;html=1;fillColor=#FFFFCC;strokeColor=default;fontColor=default;fontStyle=1" vertex="1" parent="1">
          <mxGeometry x="1000" y="180" width="120" height="60" as="geometry" />
        </mxCell>
        <mxCell id="CefQyaZeRaunVeOtPe7L-11" value="Módulo MFC 1" style="rounded=0;whiteSpace=wrap;html=1;fillColor=#FFFFCC;strokeColor=default;fontColor=default;fontStyle=1" vertex="1" parent="1">
          <mxGeometry x="1000" y="430" width="120" height="60" as="geometry" />
        </mxCell>
        <mxCell id="CefQyaZeRaunVeOtPe7L-12" value="Módulo MFC 1" style="rounded=0;whiteSpace=wrap;html=1;fillColor=#FFFFCC;strokeColor=default;fontColor=default;fontStyle=1" vertex="1" parent="1">
          <mxGeometry x="1000" y="530" width="120" height="60" as="geometry" />
        </mxCell>
        <mxCell id="CefQyaZeRaunVeOtPe7L-36" value="" style="edgeStyle=orthogonalEdgeStyle;rounded=0;orthogonalLoop=1;jettySize=auto;html=1;labelBackgroundColor=default;fontColor=default;strokeColor=default;" edge="1" parent="1" source="CefQyaZeRaunVeOtPe7L-17" target="CefQyaZeRaunVeOtPe7L-35">
          <mxGeometry relative="1" as="geometry" />
        </mxCell>
        <mxCell id="CefQyaZeRaunVeOtPe7L-17" value="Módulo Relé&lt;br&gt;1 canal" style="rounded=0;whiteSpace=wrap;html=1;fillColor=#CCE5FF;strokeColor=default;fontColor=default;fontStyle=1" vertex="1" parent="1">
          <mxGeometry x="620" y="460" width="120" height="60" as="geometry" />
        </mxCell>
        <mxCell id="CefQyaZeRaunVeOtPe7L-28" style="edgeStyle=orthogonalEdgeStyle;rounded=0;orthogonalLoop=1;jettySize=auto;html=1;exitX=1;exitY=0.5;exitDx=0;exitDy=0;entryX=0;entryY=0.25;entryDx=0;entryDy=0;labelBackgroundColor=default;fontColor=default;strokeColor=default;" edge="1" parent="1" source="CefQyaZeRaunVeOtPe7L-18" target="CefQyaZeRaunVeOtPe7L-10">
          <mxGeometry relative="1" as="geometry" />
        </mxCell>
        <mxCell id="CefQyaZeRaunVeOtPe7L-18" value="Potenciômetro&lt;br&gt;Digital 1&amp;nbsp;" style="rounded=0;whiteSpace=wrap;html=1;fillColor=#CCFFCC;strokeColor=default;fontColor=default;fontStyle=1" vertex="1" parent="1">
          <mxGeometry x="790" y="150" width="120" height="60" as="geometry" />
        </mxCell>
        <mxCell id="CefQyaZeRaunVeOtPe7L-29" style="edgeStyle=orthogonalEdgeStyle;rounded=0;orthogonalLoop=1;jettySize=auto;html=1;exitX=1;exitY=0.5;exitDx=0;exitDy=0;entryX=0;entryY=0.25;entryDx=0;entryDy=0;labelBackgroundColor=default;fontColor=default;strokeColor=default;" edge="1" parent="1" source="CefQyaZeRaunVeOtPe7L-20" target="CefQyaZeRaunVeOtPe7L-9">
          <mxGeometry relative="1" as="geometry" />
        </mxCell>
        <mxCell id="CefQyaZeRaunVeOtPe7L-20" value="Potenciômetro&lt;br&gt;Digital 2" style="rounded=0;whiteSpace=wrap;html=1;fillColor=#CCFFCC;strokeColor=default;fontColor=default;fontStyle=1" vertex="1" parent="1">
          <mxGeometry x="790" y="250" width="120" height="60" as="geometry" />
        </mxCell>
        <mxCell id="CefQyaZeRaunVeOtPe7L-31" style="edgeStyle=orthogonalEdgeStyle;rounded=0;orthogonalLoop=1;jettySize=auto;html=1;exitX=1;exitY=0.5;exitDx=0;exitDy=0;entryX=0;entryY=0.75;entryDx=0;entryDy=0;labelBackgroundColor=default;fontColor=default;strokeColor=default;" edge="1" parent="1" source="CefQyaZeRaunVeOtPe7L-21" target="CefQyaZeRaunVeOtPe7L-11">
          <mxGeometry relative="1" as="geometry" />
        </mxCell>
        <mxCell id="CefQyaZeRaunVeOtPe7L-21" value="Potenciômetro&lt;br&gt;Digital 3" style="rounded=0;whiteSpace=wrap;html=1;fillColor=#CCFFCC;strokeColor=default;fontColor=default;fontStyle=1" vertex="1" parent="1">
          <mxGeometry x="790" y="460" width="120" height="60" as="geometry" />
        </mxCell>
        <mxCell id="CefQyaZeRaunVeOtPe7L-33" style="edgeStyle=orthogonalEdgeStyle;rounded=0;orthogonalLoop=1;jettySize=auto;html=1;exitX=1;exitY=0.5;exitDx=0;exitDy=0;entryX=0;entryY=0.75;entryDx=0;entryDy=0;labelBackgroundColor=default;fontColor=default;strokeColor=default;" edge="1" parent="1" source="CefQyaZeRaunVeOtPe7L-22" target="CefQyaZeRaunVeOtPe7L-12">
          <mxGeometry relative="1" as="geometry" />
        </mxCell>
        <mxCell id="CefQyaZeRaunVeOtPe7L-22" value="Potenciômetro&lt;br&gt;Digital 4" style="rounded=0;whiteSpace=wrap;html=1;fillColor=#CCFFCC;strokeColor=default;fontColor=default;fontStyle=1" vertex="1" parent="1">
          <mxGeometry x="790" y="560" width="120" height="60" as="geometry" />
        </mxCell>
        <mxCell id="CefQyaZeRaunVeOtPe7L-35" value="Módulo Pirani" style="rounded=0;whiteSpace=wrap;html=1;fillColor=#FFE6CC;strokeColor=default;fontColor=default;fontStyle=1" vertex="1" parent="1">
          <mxGeometry x="620" y="560" width="120" height="60" as="geometry" />
        </mxCell>
        <mxCell id="CefQyaZeRaunVeOtPe7L-37" value="Coleta de dados" style="rounded=0;whiteSpace=wrap;html=1;fontColor=default;strokeColor=default;fillColor=#FFFFFF;fontStyle=1" vertex="1" parent="1">
          <mxGeometry x="260" y="360" width="120" height="60" as="geometry" />
        </mxCell>
      </root>
    </mxGraphModel>
  </diagram>
</mxfile>
